<svg xmlns="http://www.w3.org/2000/svg" viewBox="0 0 800 1000" width="800" height="1000" aria-hidden="true">
  <defs>
    <linearGradient id="bg2" x1="0" x2="1">
      <stop offset="0" stop-color="#051823"/>
      <stop offset="1" stop-color="#071225"/>
    </linearGradient>
    <linearGradient id="hexGrad" x1="0" x2="1">
      <stop offset="0" stop-color="#0ea5ff"/>
      <stop offset="1" stop-color="#60a5fa"/>
    </linearGradient>
  </defs>
  <rect width="100%" height="100%" fill="url(#bg2)" />
  <g transform="translate(60,80)" opacity="0.95">
    <!-- hex grid -->
    <g stroke="#0ea5ff22" stroke-width="1.2" fill="none">
      <polygon points="160,80 200,60 260,60 300,80 260,110 200,110" />
      <polygon points="360,160 400,140 460,140 500,160 460,190 400,190" />
      <polygon points="80,220 120,200 180,200 220,220 180,250 120,250" />
    </g>
    <g fill="url(#hexGrad)" opacity="0.12">
      <polygon points="160,80 200,60 260,60 300,80 260,110 200,110" />
      <polygon points="360,160 400,140 460,140 500,160 460,190 400,190" />
    </g>
    <g stroke="#0ea5ff44" stroke-width="1" fill="none" opacity="0.3">
      <path d="M40 520c100-70 260-100 360-100s220 30 320 100" stroke-linecap="round"/>
    </g>
  </g>
</svg>